<?xml version="1.0" encoding="UTF-8"?>
<!DOCTYPE svg PUBLIC "-//W3C//DTD SVG 1.1//EN" "http://www.w3.org/Graphics/SVG/1.1/DTD/svg11.dtd">
<svg xmlns="http://www.w3.org/2000/svg" version="1.1" width="2878px" height="3104px" style="shape-rendering:geometricPrecision; text-rendering:geometricPrecision; image-rendering:optimizeQuality; fill-rule:evenodd; clip-rule:evenodd" xmlns:xlink="http://www.w3.org/1999/xlink">
<g><path style="opacity:0.997" fill="#fefffe" d="M 1495.5,-0.5 C 1501.17,-0.5 1506.83,-0.5 1512.5,-0.5C 1519.9,1.02103 1527.23,3.18769 1534.5,6C 1570.6,24.4639 1605.93,44.1305 1640.5,65C 1755.67,135.421 1871.34,205.088 1987.5,274C 2028.33,299.917 2069.33,325.584 2110.5,351C 2331.33,485.585 2552.33,619.918 2773.5,754C 2802.18,771.338 2830.18,789.672 2857.5,809C 2867.72,817.011 2874.38,827.178 2877.5,839.5C 2877.5,843.5 2877.5,847.5 2877.5,851.5C 2875.3,859.9 2871.47,867.567 2866,874.5C 2859.1,882.072 2851.6,888.905 2843.5,895C 2787.03,934.077 2729.36,971.411 2670.5,1007C 2630.98,1026.13 2592.31,1024.46 2554.5,1002C 2236.36,808.539 1917.69,615.872 1598.5,424C 1574,409.919 1549.67,395.585 1525.5,381C 1519.24,378.417 1512.74,376.917 1506,376.5C 1499.31,377.132 1492.81,378.632 1486.5,381C 1460.5,396.667 1434.5,412.333 1408.5,428C 1090.33,623.915 772.664,820.582 455.5,1018C 411.185,1041.21 368.185,1038.87 326.5,1011C 278.233,981.062 230.233,950.729 182.5,920C 170.752,911.589 159.585,902.423 149,892.5C 131.555,868.445 134.055,846.612 156.5,827C 200.136,795.844 244.803,766.177 290.5,738C 654.5,511.333 1018.5,284.667 1382.5,58C 1412.52,39.6539 1443.18,22.3206 1474.5,6C 1481.4,3.08524 1488.4,0.918578 1495.5,-0.5 Z M 1500.5,120.5 C 1508.02,120.476 1515.36,121.643 1522.5,124C 1532.67,130.252 1543,136.252 1553.5,142C 1933.83,372.498 2313.83,603.498 2693.5,835C 2698.18,843.231 2698.68,851.731 2695,860.5C 2674.98,874.682 2653.98,887.348 2632,898.5C 2618,903.117 2604.5,901.95 2591.5,895C 2252.88,688.41 1913.22,483.41 1572.5,280C 1558.12,271.477 1543.46,263.477 1528.5,256C 1512.83,250 1497.17,250 1481.5,256C 1465.84,264.16 1450.51,272.827 1435.5,282C 1096.3,490.541 757.637,699.874 419.5,910C 408.024,915.619 396.024,916.952 383.5,914C 361.228,902.055 339.728,888.889 319,874.5C 315.036,865.429 315.869,856.929 321.5,849C 708.568,607.604 1095.9,366.604 1483.5,126C 1489.04,123.374 1494.7,121.54 1500.5,120.5 Z"/></g>
<g><path style="opacity:0.958" fill="#fefffe" d="M 1490.5,731.5 C 1508.55,731.069 1526.55,731.569 1544.5,733C 1552.35,737.118 1560.35,740.951 1568.5,744.5C 1579.26,753.053 1588.93,762.719 1597.5,773.5C 1611.9,802.542 1626.4,831.542 1641,860.5C 1642.15,866.628 1644.82,871.962 1649,876.5C 1650,879.833 1651,883.167 1652,886.5C 1662.19,906.981 1672.52,927.314 1683,947.5C 1688.67,960.203 1694.34,972.87 1700,985.5C 1704.33,993.5 1708.67,1001.5 1713,1009.5C 1714.67,1013.83 1716.33,1018.17 1718,1022.5C 1733.51,1053.73 1749.01,1084.9 1764.5,1116C 1773.75,1117.33 1783.08,1118.33 1792.5,1119C 1799.22,1121.02 1805.88,1123.02 1812.5,1125C 1823.51,1125.56 1834.51,1126.22 1845.5,1127C 1862.56,1132.91 1880.23,1135.58 1898.5,1135C 1906.44,1137.54 1914.44,1139.87 1922.5,1142C 1940.22,1140.56 1957.22,1143.23 1973.5,1150C 1991.86,1148.61 2009.53,1151.28 2026.5,1158C 2039.59,1158 2052.59,1159 2065.5,1161C 2069.75,1162.13 2073.75,1163.79 2077.5,1166C 2091.24,1166.1 2104.91,1167.1 2118.5,1169C 2123.13,1169.91 2127.46,1171.57 2131.5,1174C 2137.55,1174.68 2143.55,1175.68 2149.5,1177C 2194.12,1198.06 2213.95,1233.23 2209,1282.5C 2206.32,1290.51 2203.65,1298.51 2201,1306.5C 2197,1313.17 2193,1319.83 2189,1326.5C 2099.5,1415 2010.16,1504 1921,1593.5C 1921.42,1612.17 1924.08,1630.51 1929,1648.5C 1929.78,1665.51 1932.45,1682.18 1937,1698.5C 1938.75,1707.74 1939.75,1717.08 1940,1726.5C 1945.08,1745.15 1948.08,1764.15 1949,1783.5C 1950.04,1787.92 1951.38,1792.25 1953,1796.5C 1954.71,1809.82 1956.38,1823.16 1958,1836.5C 1959,1839.17 1960,1841.83 1961,1844.5C 1965.46,1875.14 1969.79,1905.81 1974,1936.5C 1980.45,1957.73 1982.12,1979.4 1979,2001.5C 1978.18,2003.79 1977.51,2006.12 1977,2008.5C 1974.08,2014.02 1971.41,2019.68 1969,2025.5C 1965.91,2028.76 1963.41,2032.42 1961.5,2036.5C 1946.19,2053.33 1927.85,2065.5 1906.5,2073C 1891.83,2073.67 1877.17,2073.67 1862.5,2073C 1858.04,2072.04 1853.71,2070.71 1849.5,2069C 1841.41,2065.4 1833.75,2061.06 1826.5,2056C 1820.42,2054.86 1815.09,2052.19 1810.5,2048C 1807.83,2047 1805.17,2046 1802.5,2045C 1795.43,2040.27 1788.09,2035.93 1780.5,2032C 1775,2030.83 1770.33,2028.16 1766.5,2024C 1760.37,2022.85 1755.04,2020.18 1750.5,2016C 1741.61,2011.62 1732.61,2007.45 1723.5,2003.5C 1722.31,2002.15 1720.98,2000.98 1719.5,2000C 1710.65,1995.41 1701.65,1991.08 1692.5,1987C 1680.19,1980.04 1667.86,1973.04 1655.5,1966C 1652.41,1965.29 1649.41,1964.29 1646.5,1963C 1639.5,1958.67 1632.5,1954.34 1625.5,1950C 1622.59,1948.71 1619.59,1947.71 1616.5,1947C 1614,1945.17 1611.5,1943.34 1609,1941.5C 1577.32,1925.15 1545.66,1908.81 1514,1892.5C 1498.7,1900.81 1483.2,1908.65 1467.5,1916C 1454.4,1924.1 1441.07,1931.77 1427.5,1939C 1424.41,1939.71 1421.41,1940.71 1418.5,1942C 1411.63,1946.6 1404.63,1950.93 1397.5,1955C 1391.37,1956.15 1386.04,1958.82 1381.5,1963C 1375.81,1964.34 1370.81,1967.01 1366.5,1971C 1348.01,1980.75 1329.34,1990.25 1310.5,1999.5C 1304.35,2003.61 1298.01,2007.44 1291.5,2011C 1274.56,2018.74 1258.23,2027.41 1242.5,2037C 1238.46,2038.67 1234.46,2040.34 1230.5,2042C 1224.38,2045.48 1218.38,2049.15 1212.5,2053C 1206.59,2054.05 1201.59,2056.72 1197.5,2061C 1189.86,2063.55 1182.52,2066.89 1175.5,2071C 1134.01,2082.16 1099.01,2071.99 1070.5,2040.5C 1067.53,2036.03 1064.36,2031.69 1061,2027.5C 1059.14,2022.04 1056.47,2017.04 1053,2012.5C 1046.28,1980.79 1047.61,1949.46 1057,1918.5C 1058.18,1906.82 1059.51,1895.15 1061,1883.5C 1063.45,1877.38 1065.11,1871.05 1066,1864.5C 1066.57,1848.77 1069.24,1833.44 1074,1818.5C 1074.76,1802.16 1077.42,1786.16 1082,1770.5C 1082.9,1755.17 1085.57,1740.17 1090,1725.5C 1090.74,1709.79 1093.41,1694.46 1098,1679.5C 1099.82,1669.6 1100.82,1659.6 1101,1649.5C 1106.24,1631.86 1109.24,1613.86 1110,1595.5C 1109.33,1594.17 1108.67,1592.83 1108,1591.5C 1021.55,1505.54 935.045,1419.88 848.5,1334.5C 842.091,1327.26 836.258,1319.59 831,1311.5C 827.221,1303.37 823.887,1295.04 821,1286.5C 820.333,1274.5 820.333,1262.5 821,1250.5C 824.74,1234.24 831.24,1219.24 840.5,1205.5C 846.348,1199.49 852.348,1193.65 858.5,1188C 865.456,1184.86 872.123,1181.19 878.5,1177C 889.054,1176.11 899.054,1173.44 908.5,1169C 922.086,1167.14 935.753,1166.14 949.5,1166C 957.687,1161.91 966.353,1159.57 975.5,1159C 984.5,1158.67 993.5,1158.33 1002.5,1158C 1006.14,1156.38 1009.81,1154.71 1013.5,1153C 1027.07,1150.98 1040.74,1149.98 1054.5,1150C 1071.06,1143.21 1088.4,1140.54 1106.5,1142C 1114.29,1139.07 1122.29,1136.74 1130.5,1135C 1143.24,1134.85 1155.9,1133.85 1168.5,1132C 1172.38,1129.35 1176.71,1127.68 1181.5,1127C 1192.83,1126.26 1204.16,1125.59 1215.5,1125C 1221.7,1122.74 1228.03,1120.74 1234.5,1119C 1244.2,1118.29 1253.87,1117.46 1263.5,1116.5C 1289.85,1063.14 1315.68,1009.47 1341,955.5C 1355.79,927.453 1369.63,898.953 1382.5,870C 1386.67,864.824 1389.51,858.991 1391,852.5C 1394.8,844.246 1399.13,836.246 1404,828.5C 1411.91,808.743 1421.41,789.743 1432.5,771.5C 1437.83,765.007 1443.49,758.841 1449.5,753C 1455.45,749.38 1461.12,745.38 1466.5,741C 1474.73,737.88 1482.73,734.714 1490.5,731.5 Z"/></g>
<g><path style="opacity:0.998" fill="#fefffe" d="M 1905.5,3103.5 C 1895.83,3103.5 1886.17,3103.5 1876.5,3103.5C 1825.74,3093.59 1791.24,3064.25 1773,3015.5C 1761.65,2972.55 1770.32,2934.22 1799,2900.5C 1806.01,2893.65 1812.85,2886.65 1819.5,2879.5C 1473.84,2875.48 1128.18,2873.32 782.5,2873C 828.674,2906.21 847.174,2951.04 838,3007.5C 822.705,3062.63 786.872,3094.63 730.5,3103.5C 722.5,3103.5 714.5,3103.5 706.5,3103.5C 660.488,3096.01 626.988,3071.34 606,3029.5C 584.824,2973.38 596.658,2925.55 641.5,2886C 656.155,2875.37 671.822,2866.37 688.5,2859C 654.916,2845.8 627.083,2824.96 605,2796.5C 593.812,2781.46 584.145,2765.46 576,2748.5C 574.746,2744.23 573.746,2739.9 573,2735.5C 571.018,2711.17 571.018,2686.83 573,2662.5C 573.857,2656.07 575.191,2649.74 577,2643.5C 589.384,2610.51 607.384,2581.17 631,2555.5C 644.517,2541.98 658.684,2529.15 673.5,2517C 718.288,2481.88 762.788,2446.38 807,2410.5C 807.667,2408.5 807.667,2406.5 807,2404.5C 789.453,2355.19 771.12,2306.19 752,2257.5C 616.324,1911.13 480.657,1564.8 345,1218.5C 310.204,1211.95 275.37,1205.45 240.5,1199C 177.075,1188.76 113.742,1178.1 50.5,1167C 22.4764,1160.48 5.47645,1143.31 -0.5,1115.5C -0.5,1110.17 -0.5,1104.83 -0.5,1099.5C 7.48651,1059.73 31.8198,1042.57 72.5,1048C 96.9793,1050.69 121.313,1054.36 145.5,1059C 224.949,1072.69 304.282,1087.02 383.5,1102C 396.704,1104.55 409.704,1107.88 422.5,1112C 426.579,1114.08 430.079,1116.91 433,1120.5C 443.665,1139.5 452.999,1159.17 461,1179.5C 489.888,1251.94 518.221,1324.61 546,1397.5C 669.697,1702.25 792.031,2007.59 913,2313.5C 916.847,2323.36 922.347,2332.19 929.5,2340C 931.717,2341.28 934.051,2342.28 936.5,2343C 1320.83,2343.67 1705.17,2343.67 2089.5,2343C 2093.24,2341.26 2096.41,2338.76 2099,2335.5C 2102.53,2329.78 2105.53,2323.78 2108,2317.5C 2201.42,2085.58 2295.42,1853.91 2390,1622.5C 2450.22,1470.06 2509.89,1317.39 2569,1164.5C 2575.08,1148.33 2582.75,1133 2592,1118.5C 2594.46,1117.04 2596.63,1115.21 2598.5,1113C 2604.76,1110.8 2611.09,1108.8 2617.5,1107C 2652.46,1099.74 2687.46,1092.74 2722.5,1086C 2725.23,1085.18 2727.89,1085.35 2730.5,1086.5C 2557.39,1527.72 2384.56,1969.05 2212,2410.5C 2196.85,2438.67 2173.35,2454.84 2141.5,2459C 2132.19,2460.02 2122.86,2460.68 2113.5,2461C 1734.17,2461.33 1354.83,2461.67 975.5,2462C 962.804,2461.96 950.471,2463.96 938.5,2468C 930.164,2472.5 922.164,2477.5 914.5,2483C 849.769,2533.37 785.769,2584.71 722.5,2637C 695.775,2660.5 687.275,2689.34 697,2723.5C 704.587,2737.75 716.421,2745.59 732.5,2747C 765.43,2749.86 798.43,2751.19 831.5,2751C 1246.85,2751.9 1662.18,2754.57 2077.5,2759C 2089.17,2769.67 2099,2781.84 2107,2795.5C 2115.05,2822.45 2108.55,2845.28 2087.5,2864C 2078.5,2870.22 2068.5,2873.89 2057.5,2875C 2049.53,2876 2041.53,2876.66 2033.5,2877C 2009.17,2877.33 1984.83,2877.67 1960.5,2878C 1970.65,2888.48 1980.48,2899.32 1990,2910.5C 2014.85,2946.1 2020.18,2984.43 2006,3025.5C 1985.93,3069.09 1952.43,3095.09 1905.5,3103.5 Z M 715.5,2908.5 C 748.902,2910.79 772.735,2927.12 787,2957.5C 796.231,2989.42 788.064,3015.92 762.5,3037C 740.72,3054.49 717.053,3057.83 691.5,3047C 675.092,3038.56 662.258,3026.39 653,3010.5C 639.481,2969.57 650.981,2938.4 687.5,2917C 696.39,2912.28 705.723,2909.45 715.5,2908.5 Z M 1878.5,2910.5 C 1921.33,2906.97 1948.83,2925.64 1961,2966.5C 1966.27,2999.75 1954.77,3025.25 1926.5,3043C 1898.03,3056.03 1870.69,3054.03 1844.5,3037C 1820.35,3013.58 1813.52,2985.74 1824,2953.5C 1834.82,2929.69 1852.99,2915.36 1878.5,2910.5 Z"/></g>
<g><path style="opacity:0.992" fill="#fefffe" d="M 710.5,2944.5 C 732.288,2942.81 747.788,2951.81 757,2971.5C 761.078,2995.11 751.911,3011.27 729.5,3020C 705.025,3023.17 688.858,3013.01 681,2989.5C 678.828,2966.49 688.661,2951.49 710.5,2944.5 Z"/></g>
<g><path style="opacity:0.993" fill="#fefffe" d="M 1880.5,2944.5 C 1887.51,2944.33 1894.51,2944.5 1901.5,2945C 1910.09,2946.88 1916.93,2951.38 1922,2958.5C 1925.55,2964.93 1928.55,2971.6 1931,2978.5C 1932.66,2986.86 1930.66,2994.19 1925,3000.5C 1920.5,3005 1916,3009.5 1911.5,3014C 1892.95,3025.72 1876.12,3023.55 1861,3007.5C 1853.17,2997.86 1850.51,2986.86 1853,2974.5C 1856.17,2958.83 1865.34,2948.83 1880.5,2944.5 Z"/></g>
</svg>
